<svg xmlns="http://www.w3.org/2000/svg" viewBox="62 42 108 108"><rect fill="#f5f5f4" x="114.79" y="66.27" width="37.42" height="51.86" transform="translate(-26.1 121.4) rotate(-45)"/><path fill="#f5f5f4" d="M78.61,112.78l30.9,30.9a8.94,8.94,0,0,0,11.47,1L83.86,107.52Z"/><path fill="#eaa654" d="M133.23,83.93,111.4,105.77,92.46,86.83l21-21,.8-.8,12-12-4.13-4.13a8.91,8.91,0,0,0-12.62,0L68.43,90a8.91,8.91,0,0,0,0,12.62l7.86,7.86,7.58-7.59,2.32,2.32h0l37.21,37.21,12.33-12.32-15-15,21.83-21.83,15,15,5.66-5.66a8.93,8.93,0,0,0,0-12.62L133.69,60.46l-12,12Z"/></svg>
